<svg width="966" height="374" viewBox="0 0 966 374" fill="none" xmlns="http://www.w3.org/2000/svg">
<path d="M871.7 173.8C826.5 171 787.2 198.4 772 237.7C770.7 241.1 765.7 240.1 765.7 236.5V173.6H665.5V236.5C665.5 240.1 660.5 241 659.2 237.7C644.7 200.3 608.4 173.6 565.9 173.6C532.6 173.6 501.7 190.1 483 217.7C464.3 190.1 433.4 173.6 400.1 173.6C391 173.6 382.2 174.8 373.9 177.1C370.7 178 368.4 174 370.8 171.6C390.8 151.7 402.5 123.4 400 92.5C396.1 43.9 356.7 4.7 308.1 1.1C249.5 -3.3 200.4 43.1 200.4 100.8C200.4 128.5 211.7 153.6 230 171.7C232.4 174.1 230.1 178.1 226.9 177.2C218.5 174.9 209.7 173.7 200.6 173.7C154.3 173.7 115.3 205.3 103.9 248.1C103.1 251.3 98.5001 251.3 97.6001 248.1C93.7001 233.3 86.4001 219.4 76.1001 207.7C92.2001 189.4 101 166 101 141.7C101 86.6 56.1 41.7 1.00005 41.7H0.800049V373.6H1.00005C47.3 373.6 86.3001 342 97.6001 299.2C98.4001 296 103 296 103.9 299.2C115.2 342 154.3 373.6 200.5 373.6C243 373.6 279.3 347 293.8 309.5C295.1 306.1 300.1 307.1 300.1 310.7V373.6H665.8V310.9C665.8 307.3 670.8 306.3 672.1 309.7C677.1 322.5 684.7 334.3 694.7 344.3C713.6 363.2 738.7 373.6 765.4 373.6H765.6V310.7C765.6 307.1 770.6 306.2 771.9 309.5C786.4 346.9 822.7 373.6 865.2 373.6C922.9 373.6 969.3 324.5 964.9 265.9C961.2 216.6 921 176.9 871.7 173.8ZM297.2 248C292.6 230.6 283.4 215.1 271 202.7C268.6 200.4 270.9 196.4 274.1 197.3C282.5 199.6 291.3 200.8 300.4 200.8C309.5 200.8 318.3 199.6 326.7 197.3C329.9 196.4 332.2 200.4 329.8 202.7C317.4 215 308.2 230.6 303.6 248C302.6 251.2 298 251.2 297.2 248ZM659 98.2C659 67 684.4 41.7 715.5 41.7C746.7 41.7 772 67.1 772 98.2C772 129.3 746.6 154.7 715.5 154.7C684.4 154.7 659 129.4 659 98.2Z" fill="url(#paint0_linear_19_16174)"/>
<defs>
<linearGradient id="paint0_linear_19_16174" x1="-10.1732" y1="71.7601" x2="921.673" y2="410.925" gradientUnits="userSpaceOnUse">
<stop stop-color="#FFC352"/>
<stop offset="0.2954" stop-color="#FF3183"/>
<stop offset="0.65" stop-color="#8559F3"/>
<stop offset="0.7203" stop-color="#657BEA"/>
<stop offset="0.8425" stop-color="#34B0DC"/>
<stop offset="0.9344" stop-color="#15D1D3"/>
<stop offset="0.9846" stop-color="#09DDD0"/>
</linearGradient>
</defs>
</svg>
